<mxfile host="app.diagrams.net" modified="2023-10-09T20:08:32.106Z" agent="Mozilla/5.0 (Windows NT 10.0; Win64; x64; rv:109.0) Gecko/20100101 Firefox/118.0" etag="5QuF3jpbJAgR8QuTetnV" version="21.8.2" type="device">
  <diagram name="Page-1" id="o-KmLX-SmC312Lo7DLAZ">
    <mxGraphModel dx="1647" dy="916" grid="1" gridSize="10" guides="1" tooltips="1" connect="1" arrows="1" fold="1" page="1" pageScale="1" pageWidth="850" pageHeight="1100" math="0" shadow="0">
      <root>
        <mxCell id="0" />
        <mxCell id="1" parent="0" />
        <mxCell id="i-Z0O8iovpIWfz8lsYah-30" style="edgeStyle=none;rounded=0;orthogonalLoop=1;jettySize=auto;html=1;exitX=1;exitY=0.5;exitDx=0;exitDy=0;entryX=0;entryY=0;entryDx=0;entryDy=0;" parent="1" source="i-Z0O8iovpIWfz8lsYah-22" target="i-Z0O8iovpIWfz8lsYah-29" edge="1">
          <mxGeometry relative="1" as="geometry" />
        </mxCell>
        <mxCell id="i-Z0O8iovpIWfz8lsYah-22" value="Lift Op. 1" style="rounded=0;whiteSpace=wrap;html=1;" parent="1" vertex="1">
          <mxGeometry x="80" y="360" width="80" height="40" as="geometry" />
        </mxCell>
        <mxCell id="i-Z0O8iovpIWfz8lsYah-31" style="edgeStyle=none;rounded=0;orthogonalLoop=1;jettySize=auto;html=1;exitX=1;exitY=0.5;exitDx=0;exitDy=0;entryX=0;entryY=0.5;entryDx=0;entryDy=0;" parent="1" source="i-Z0O8iovpIWfz8lsYah-23" target="i-Z0O8iovpIWfz8lsYah-29" edge="1">
          <mxGeometry relative="1" as="geometry" />
        </mxCell>
        <mxCell id="i-Z0O8iovpIWfz8lsYah-23" value="Lift Op. 2" style="rounded=0;whiteSpace=wrap;html=1;" parent="1" vertex="1">
          <mxGeometry x="80" y="440" width="80" height="40" as="geometry" />
        </mxCell>
        <mxCell id="i-Z0O8iovpIWfz8lsYah-32" style="edgeStyle=none;rounded=0;orthogonalLoop=1;jettySize=auto;html=1;exitX=1;exitY=0.5;exitDx=0;exitDy=0;entryX=0;entryY=1;entryDx=0;entryDy=0;" parent="1" source="i-Z0O8iovpIWfz8lsYah-24" target="i-Z0O8iovpIWfz8lsYah-29" edge="1">
          <mxGeometry relative="1" as="geometry" />
        </mxCell>
        <mxCell id="i-Z0O8iovpIWfz8lsYah-24" value="Lift Op. n" style="rounded=0;whiteSpace=wrap;html=1;" parent="1" vertex="1">
          <mxGeometry x="80" y="560" width="80" height="40" as="geometry" />
        </mxCell>
        <mxCell id="i-Z0O8iovpIWfz8lsYah-28" value="" style="endArrow=none;dashed=1;html=1;dashPattern=1 3;strokeWidth=2;rounded=0;" parent="1" edge="1">
          <mxGeometry width="50" height="50" relative="1" as="geometry">
            <mxPoint x="120" y="550" as="sourcePoint" />
            <mxPoint x="120" y="490" as="targetPoint" />
          </mxGeometry>
        </mxCell>
        <mxCell id="i-Z0O8iovpIWfz8lsYah-29" value="Reports exchange" style="ellipse;whiteSpace=wrap;html=1;" parent="1" vertex="1">
          <mxGeometry x="250" y="450" width="110" height="60" as="geometry" />
        </mxCell>
        <mxCell id="i-Z0O8iovpIWfz8lsYah-35" style="edgeStyle=none;rounded=0;orthogonalLoop=1;jettySize=auto;html=1;exitX=0.5;exitY=0;exitDx=0;exitDy=0;exitPerimeter=0;" parent="1" source="i-Z0O8iovpIWfz8lsYah-33" edge="1">
          <mxGeometry relative="1" as="geometry">
            <mxPoint x="640" y="480" as="targetPoint" />
          </mxGeometry>
        </mxCell>
        <mxCell id="i-Z0O8iovpIWfz8lsYah-33" value="" style="shape=cylinder3;whiteSpace=wrap;html=1;boundedLbl=1;backgroundOutline=1;size=15;rotation=90;" parent="1" vertex="1">
          <mxGeometry x="480" y="405" width="40" height="150" as="geometry" />
        </mxCell>
        <mxCell id="i-Z0O8iovpIWfz8lsYah-34" style="edgeStyle=none;rounded=0;orthogonalLoop=1;jettySize=auto;html=1;exitX=1;exitY=0.5;exitDx=0;exitDy=0;entryX=0.5;entryY=1;entryDx=0;entryDy=0;entryPerimeter=0;" parent="1" source="i-Z0O8iovpIWfz8lsYah-29" target="i-Z0O8iovpIWfz8lsYah-33" edge="1">
          <mxGeometry relative="1" as="geometry" />
        </mxCell>
        <mxCell id="i-Z0O8iovpIWfz8lsYah-36" value="Central Unit" style="rounded=0;whiteSpace=wrap;html=1;" parent="1" vertex="1">
          <mxGeometry x="640" y="460" width="80" height="40" as="geometry" />
        </mxCell>
      </root>
    </mxGraphModel>
  </diagram>
</mxfile>
